<svg xmlns="http://www.w3.org/2000/svg" xml:space="preserve" height="30px" version="1.1" style="shape-rendering:geometricPrecision; text-rendering:geometricPrecision; image-rendering:optimizeQuality; fill-rule:evenodd; clip-rule:evenodd"
viewBox="-60 200 700 400"
 xmlns:xlink="http://www.w3.org/1999/xlink">
 <defs>
  <style type="text/css">
   <![CDATA[
    .fil0 {fill:#333}
    .fil1 {fill:#fff}
   ]]>
  </style>
 </defs>
 <g id="Warstwa_x0020_1">
  <metadata id="CorelCorpID_0Corel-Layer"/>
  <path class="fil0" d="M303 341c-67,27 -27,123 42,97 59,-22 30,-126 -42,-97z"/>
  <path class="fil1" d="M429 391c-25,12 -7,43 15,33 20,-9 8,-44 -15,-33z"/>
  <path class="fil1" d="M553 367c4,6 3,10 3,19l0 2 2 9c0,6 0,24 -2,27 2,24 -13,54 -22,71 -33,60 -111,99 -188,82 -73,-16 -126,-74 -137,-142 -2,-13 -3,-28 -2,-42 0,-7 2,-13 3,-19 0,-2 1,-8 1,-9 -1,-6 2,-7 0,-10 -11,36 -15,40 -15,81 -15,6 -32,12 -45,19 -8,4 -15,7 -22,10l-15 9c-6,4 -1,0 -5,5 12,-3 71,-35 89,-34 2,19 10,31 13,47 -8,3 -16,8 -23,13 -8,5 -16,10 -21,16 14,-7 31,-21 46,-25 6,5 9,15 13,21 2,4 5,7 7,10 4,5 6,6 7,12 -13,7 -10,5 -13,12 9,-4 9,-6 16,-10 10,5 53,59 141,59 89,0 128,-52 141,-59l33 25c-2,-5 0,-1 -4,-5 -1,-1 -3,-2 -4,-4l-22 -21c2,-4 5,-6 7,-9 9,-13 11,-15 19,-30 11,2 31,17 42,21 0,0 -1,-1 -1,-1l-4 -5c-1,-1 -3,-2 -5,-3 -3,-2 -6,-4 -9,-6 -8,-5 -11,-8 -19,-11 3,-15 10,-28 13,-47 22,-1 70,30 89,34l-2 -3c-16,-15 -63,-30 -85,-41 1,-24 -1,-64 -14,-81l-2 12z"/>
  <path class="fil1" d="M224 368c-10,-49 -13,-73 -6,-114 18,7 66,56 77,72 3,3 2,4 6,6 -4,-19 -28,-46 -37,-57l-24 -22c-8,-6 -18,-13 -29,-18 -16,14 -12,104 13,134z"/>
  <path class="fil1" d="M448 342c16,-21 60,-80 94,-92 12,18 9,62 3,112 2,-2 2,-1 5,-8 1,-3 2,-5 3,-8 2,-6 3,-11 5,-18 9,-38 8,-59 -7,-97 -53,16 -101,87 -102,111z"/>
  <path class="fil1" d="M356 464c27,30 15,25 27,45 5,-6 7,-17 12,-25 8,-15 11,-13 15,-21l-53 0z"/>
  <path class="fil1" d="M481 348c-8,-38 -53,-75 -108,-75 -55,0 -102,31 -108,70 15,-32 58,-60 108,-60 50,0 93,34 109,65z"/>
  <path class="fil1" d="M323 391c-25,12 -7,43 15,33 20,-9 8,-44 -15,-33z"/>
 </g>
</svg>
